<?xml version="1.0" encoding="iso-8859-1"?>
<!-- Generator: Adobe Illustrator 19.0.0, SVG Export Plug-In . SVG Version: 6.00 Build 0)  -->
<svg version="1.1" id="Capa_1" xmlns="http://www.w3.org/2000/svg" xmlns:xlink="http://www.w3.org/1999/xlink" x="0px" y="0px"
	 viewBox="0 0 102.436 102.436" style="enable-background:new 0 0 102.436 102.436;" xml:space="preserve">
<g id="shopping-cart_1_">
	<g>
		<path style="fill-rule:evenodd;clip-rule:evenodd;" d="M99.587,23.018c-1.791-1.062-4.976-0.73-7.419-1.141
			c-2.681-0.173-5.312-0.392-7.704-0.857c-2.036,0.581-4.116,0.199-6.274,0.285c-2.136,0.085-4.39,0.284-6.561,0.284
			c-13.92,0-27.339,0.312-40.51,0.573c-1.602,0.3-3.438,0.366-5.139,0.567c-1.154-2.647-1.558-6.05-1.999-9.413
			c-0.229-1.676-0.589-3.211-0.853-4.85c-0.552-0.4-0.428-1.478-0.858-1.998c-0.307-0.741-1.027-1.061-1.141-1.996
			c-1.61-0.007-2.359-0.877-4.281-0.571c-0.329,0.239-0.764,0.377-1.425,0.284C12.239,5.377,9.69,7.202,6.581,8.469
			c-3.244,0.465-5.807,1.61-6.562,4.562c-0.077,1.597,0.05,2.993,0.852,3.71c0.189,1.335,1.518,1.529,2.281,2.282h3.428
			c0.043-0.527,0.965-0.176,1.14-0.568c0.068-0.502,0.489-0.651,1.143-0.573c-0.108-1.249,0.815-1.468,0.854-2.566v-3.71
			c3.676,0.062,4.481-2.746,8.276-2.567c1.525,9.599,4.082,18.169,5.702,27.673c2.011,9.119,3.697,18.558,5.707,27.674
			c-1.644-0.121-2.721,0.325-3.994,0.57c-1.158,1.126-2.611,1.956-3.995,2.853c-1.361,1.017-2.427,2.327-3.42,3.711v4.851
			c0.687,0.548,1.129,1.338,1.709,1.996c0.69,0.547,1.794,0.679,2.284,1.428c8.781,1.836,18.59-0.661,26.531-2.283
			c7.676,0.598,16.166,0.38,23.965,0.855h12.553c0.396,0.65,1.987,0.105,2.854,0.285h3.138c2.128,0.036,3.714-0.47,3.996-2.281
			c0.153-2.248-1.101-3.088-2.856-3.425c-6.437-0.028-13.079,0.146-19.112-0.286H47.379c-2.058,0.321-3.826,0.932-5.991,1.143
			c-1.49,0.887-4.393,0.363-5.71,1.426c-2.572-0.195-4.273,0.482-6.843,0.284c-2.398,0.023-4.898,0.144-5.707-1.425
			c0.608-1.86,2.801-2.145,3.708-3.71c1.001-0.233,1.716-0.753,2.854-0.854c0.031-0.538,0.942-0.197,0.854-0.855
			c0.248-0.418,0.427-0.904,1.14-0.858c0.416,1.05,1.492-0.218,2.283,0.575c0.394,0.744,1.046,1.231,2.283,1.139
			c12.883-0.199,25.098-2.408,37.944-1.714c1.718-0.372,3.606-0.577,5.419-0.854h6.848c2.748,0.283,6.488,1.168,8.562-0.284
			c1.282-1.518-0.003-4.122,1.71-5.421c0.038-2.623,0.842-4.483,0.857-7.133c0.949-1.617,1.244-3.891,1.996-5.708
			c0.877-1.784,1.279-4.046,2.283-5.702C102.645,36.112,103.176,26.904,99.587,23.018z M62.783,27.012
			c0.14,2.047,0.481,3.896,0.569,5.991c0.142,1,0.427,1.856,0.287,3.139c0.684,0.359-0.159,2.249,0.57,2.566
			c-0.123,0.637-1.406,0.117-1.996,0.285h-2.281c-3.263,0.352-6.553,0.678-10.274,0.572c-1.128-4.196-2.628-8.025-3.422-12.554
			H62.783z M30.829,43.273c-1.357-5.679-2.952-11.123-3.993-17.117c5.255,0.645,10.825,0.968,16.834,0.856
			c-0.134,5.077,1.735,8.153,1.427,13.409c-3.791,0.012-6.668,0.941-10.273,1.141C33.415,42.055,32.214,42.754,30.829,43.273z
			 M39.674,64.385c-1.492,0.315-2.993,0.619-4.28,1.143c-1.334-6.462-2.91-12.686-3.992-19.399c4.533,1.317,9.504-0.135,14.551,0
			c1.048,4.651-0.016,11.425,1.139,15.975c0.9,0.246,1.206,1.078,2.283,1.143c4.637-0.674,2.276-7.906,2.566-12.27
			c-0.35-1.74-0.83-3.354-0.854-5.42c4.175-0.581,8.608-0.902,13.411-0.855c0.14,6.04,0.462,11.9,1.139,17.402
			C57.017,62.902,48.569,63.867,39.674,64.385z M78.189,61.248c-3.052,0.469-6.069,0.969-9.7,0.855
			c-0.27-5.818-0.914-11.258-0.856-17.402h11.128C79.147,49.687,77.868,55.385,78.189,61.248z M79.33,38.994
			c-3.719,0.748-7.948-0.402-12.267,0c-0.121-4.252-0.937-7.811-1.145-11.982c4.6-0.513,8.969-0.087,13.695,0
			C79.249,30.734,79.319,34.892,79.33,38.994z M96.163,42.705c-2.021,3.018-2.655,7.426-4.562,10.555
			c-0.137,3.004-0.686,5.594-1.145,8.273c-2.785-0.351-5.78-0.495-8.844-0.571c1.271-4.623,1.199-10.594,1.713-15.975
			c3.506-0.678,8.097-0.273,9.983-2.568c-2.112-1.883-5.896-2.094-9.698-2.283V26.726c4.191,0.276,8.17,0.77,12.553,0.856
			C97.148,31.962,96.807,38.283,96.163,42.705z M39.105,80.933c-2.81,0.139-4.645,1.251-6.563,2.28
			c-1.082,1.394-2.346,2.601-2.567,4.851c-0.175,1.889,0.607,2.818,1.144,3.993c-0.884,1.237,0.465,2.271,0.283,3.71
			c1.257,0.645,1.644,2.158,3.139,2.568c2.701,0.77,5.385-0.354,7.701-0.854c0.197-0.564,0.762-0.762,1.429-0.856
			c2.104-2.174,4.211-4.348,4.563-8.272v-1.714c-0.552-2.396-2.006-3.891-3.425-5.422C42.977,81.238,40.923,79.976,39.105,80.933z
			 M41.956,89.778c-1.066,0.453-1.266,1.772-2.566,1.997c-1.646-0.826-3.59-1.354-4.85-2.568c0.376-3.26,4.967-4.618,8.273-3.138
			C43.023,87.801,42.537,88.834,41.956,89.778z M87.319,81.217c-1.028-0.311-3.588-0.586-4.566,0
			c-1.621-0.098-2.447,0.596-3.992,0.572c-0.926,0.693-2.021,1.216-3.138,1.712c-0.55,1.162-1.97,1.456-2.284,2.853
			c-0.566,1.719-0.166,4.397-0.283,6.561c0.507,0.54,0.769,1.322,1.424,1.714c0.24,0.807,1.307,0.786,1.428,1.71
			c1.264-0.31,1.419,0.486,2.282,0.57c2.356,0.077,4.416-0.147,5.991-0.853c0.92-0.223,1.684-0.598,2.281-1.143
			c1.066-0.175,1.16-1.312,2.283-1.428c0.893-2.153,2.238-3.849,2.282-6.847c-0.196-1.23-0.843-2.007-0.854-3.425
			C88.85,82.922,88.677,81.479,87.319,81.217z M82.47,90.919c-1.879-0.405-4.746,0.179-4.28-2.566
			c0.234-0.908,1.224-1.06,1.997-1.427c0.541-0.506,1.827-0.267,2.283-0.856c1.57,0.11,1.98-0.309,3.137,0
			C85.714,88.837,84.085,89.869,82.47,90.919z"/>
	</g>
</g>
<g>
</g>
<g>
</g>
<g>
</g>
<g>
</g>
<g>
</g>
<g>
</g>
<g>
</g>
<g>
</g>
<g>
</g>
<g>
</g>
<g>
</g>
<g>
</g>
<g>
</g>
<g>
</g>
<g>
</g>
</svg>
